<svg width="100" height="100" viewBox="0 0 100 100" fill="none" xmlns="http://www.w3.org/2000/svg">
<path d="M27.4111 49.3541L40.2104 49.4932C42.2936 49.513 44.3526 49.9452 46.2694 50.7649C48.1862 51.5847 49.9234 52.7759 51.3815 54.2706C52.8396 55.7652 53.9901 57.534 54.7671 59.4756C55.5441 61.4172 55.9325 63.4937 55.9099 65.5862L55.6943 85.5993L11.1743 85.1154L11.3899 65.1023C11.4354 60.8799 13.1489 56.8486 16.1534 53.8952C19.158 50.9419 23.2075 49.3084 27.4111 49.3541Z" fill="#F8F8F8" stroke="#07122B" stroke-width="2" stroke-linecap="round" stroke-linejoin="round"/>
<path d="M19.7388 71.1714L39.4294 71.3857C40.5784 71.3994 41.6911 71.7916 42.5968 72.5019C43.5024 73.2122 44.1509 74.2015 44.4428 75.3178L44.3254 81.3714" fill="#F8F8F8"/>
<path d="M19.7388 71.1714L39.4294 71.3857C40.5784 71.3994 41.6911 71.7916 42.5968 72.5019C43.5024 73.2122 44.1509 74.2015 44.4428 75.3178L44.3254 81.3714" stroke="#07122B" stroke-width="2" stroke-linecap="round" stroke-linejoin="round"/>
<path d="M21.3919 30.4144C20.5198 30.3396 19.6977 29.9742 19.056 29.3763C18.4144 28.7784 17.9901 27.9823 17.8506 27.1144C17.4026 23.8465 17.1252 19.8822 18.2026 16.7108C19.2799 13.5394 23.0026 11.1608 26.0426 10.1644C29.619 9.14881 33.3594 8.85028 37.0506 9.2858C39.8239 9.50008 42.7999 9.82151 45.1892 8.40723" fill="#F8F8F8"/>
<path d="M21.3919 30.4144C20.5198 30.3396 19.6977 29.9742 19.056 29.3763C18.4144 28.7784 17.9901 27.9823 17.8506 27.1144C17.4026 23.8465 17.1252 19.8822 18.2026 16.7108C19.2799 13.5394 23.0026 11.1608 26.0426 10.1644C29.619 9.14881 33.3594 8.85028 37.0506 9.2858C39.8239 9.50008 42.7999 9.82151 45.1892 8.40723" stroke="#07122B" stroke-width="2" stroke-linecap="round" stroke-linejoin="round"/>
<path d="M20.6347 35.375C22.6554 35.375 24.2934 33.7297 24.2934 31.7C24.2934 29.6704 22.6554 28.025 20.6347 28.025C18.6141 28.025 16.9761 29.6704 16.9761 31.7C16.9761 33.7297 18.6141 35.375 20.6347 35.375Z" fill="#F8F8F8" stroke="#07122B" stroke-width="2" stroke-linecap="round" stroke-linejoin="round"/>
<path d="M44.8589 14.2679C45.8553 14.1004 46.8087 13.7362 47.6642 13.1965C48.2861 12.6971 48.8741 12.1566 49.4242 11.5786" stroke="#07122B" stroke-width="2" stroke-linecap="round" stroke-linejoin="round"/>
<path d="M28.8413 44.3569L40.03 44.4786L39.9614 50.8425C39.9577 51.5833 39.808 52.3162 39.5209 52.9986C39.2339 53.6811 38.8152 54.2998 38.289 54.819C37.7628 55.3382 37.1395 55.7477 36.4551 56.0238C35.7706 56.2999 35.0385 56.4371 34.3009 56.4277C32.8186 56.4116 31.4034 55.8047 30.3666 54.7404C29.3298 53.6762 28.7564 52.2419 28.7724 50.753L28.8413 44.3569Z" fill="#F8F8F8" stroke="#07122B" stroke-width="2" stroke-linecap="round" stroke-linejoin="round"/>
<path d="M48.4639 22.6892L48.3252 35.9428C48.3099 37.3929 48.0097 38.8257 47.4417 40.1589C46.8738 41.4922 46.0493 42.6997 45.0157 43.7121C43.982 44.7245 42.7594 45.5219 41.4182 46.0585C40.077 46.5951 38.6434 46.8605 37.1999 46.8392H32.2825C30.8421 46.8183 29.4199 46.5122 28.0973 45.9384C26.7748 45.3646 25.578 44.5345 24.5753 43.4955C23.5726 42.4565 22.7838 41.229 22.254 39.8834C21.7242 38.5377 21.4639 37.1003 21.4878 35.6535L21.6265 22.3999L44.3679 22.6464C45.3581 22.6577 46.3408 22.4724 47.2595 22.1012C48.1783 21.73 49.015 21.1802 49.7217 20.4834C50.4283 19.7865 50.991 18.9563 51.3774 18.0404C51.7637 17.1246 51.9662 16.141 51.9732 15.1464" fill="#F8F8F8"/>
<path d="M48.4639 22.6892L48.3252 35.9428C48.3099 37.3929 48.0097 38.8257 47.4417 40.1589C46.8738 41.4922 46.0493 42.6997 45.0157 43.7121C43.982 44.7245 42.7594 45.5219 41.4182 46.0585C40.077 46.5951 38.6434 46.8605 37.1998 46.8392H32.2825C30.8421 46.8183 29.4199 46.5122 28.0973 45.9384C26.7748 45.3646 25.578 44.5345 24.5753 43.4955C23.5726 42.4565 22.7838 41.229 22.254 39.8834C21.7242 38.5377 21.4639 37.1003 21.4878 35.6535L21.6265 22.3999L44.3679 22.6464C45.3581 22.6577 46.3408 22.4724 47.2595 22.1012C48.1783 21.73 49.015 21.1802 49.7217 20.4834C50.4283 19.7865 50.991 18.9563 51.3774 18.0404C51.7637 17.1246 51.9662 16.141 51.9732 15.1464V15.1464" stroke="#07122B" stroke-width="2" stroke-linecap="round" stroke-linejoin="round"/>
<path d="M30.3521 29.2357L30.7254 29.2464" stroke="#07122B" stroke-width="2" stroke-linecap="round" stroke-linejoin="round"/>
<path d="M38.48 29.3214L38.8533 29.3321" stroke="#07122B" stroke-width="2" stroke-linecap="round" stroke-linejoin="round"/>
<path d="M31.0137 37.2607C31.0137 37.2607 34.939 39.7036 38.171 37.3357L31.0137 37.2607Z" fill="#F8F8F8"/>
<path d="M31.0137 37.2607C31.0137 37.2607 34.939 39.7036 38.171 37.3357" stroke="#07122B" stroke-width="2" stroke-linecap="round" stroke-linejoin="round"/>
<path d="M87.5116 81.8498L4.59375 80.9485L4.48398 91.1372L87.4018 92.0385L87.5116 81.8498Z" fill="#F8F8F8" stroke="#07122B" stroke-width="2" stroke-linecap="round" stroke-linejoin="round"/>
<path d="M87.8454 81.3929H46.3734L53.5947 47.0536H95.0774L87.8454 81.3929Z" fill="#F8F8F8" stroke="#07122B" stroke-width="2" stroke-linecap="round" stroke-linejoin="round"/>
<path d="M34.3839 71.6964V81.2536" stroke="#07122B" stroke-width="2" stroke-linecap="round" stroke-linejoin="round"/>
<path d="M71.6853 70.55C74.4187 70.55 76.6346 68.3242 76.6346 65.5786C76.6346 62.833 74.4187 60.6072 71.6853 60.6072C68.9519 60.6072 66.736 62.833 66.736 65.5786C66.736 68.3242 68.9519 70.55 71.6853 70.55Z" fill="#F8F8F8" stroke="#07122B" stroke-width="2" stroke-linecap="round" stroke-linejoin="round"/>
</svg>
