<svg width="100" height="100" viewBox="0 0 100 100" fill="none" xmlns="http://www.w3.org/2000/svg">
<path d="M76.4701 88.281H6.69873V49.2231L42.8511 21.5374L76.4701 49.2231V88.281Z" fill="#F8F8F8" stroke="#07122B" stroke-width="2" stroke-linecap="round" stroke-linejoin="round"/>
<path d="M73.5305 34.6898H10.4829V81.1925H73.5305V34.6898Z" fill="#F8F8F8" stroke="#07122B" stroke-width="2" stroke-linecap="round" stroke-linejoin="round"/>
<path d="M66.9456 41.0555H16.2339V84.0732H66.9456V41.0555Z" fill="#F8F8F8" stroke="#07122B" stroke-width="2" stroke-linecap="round" stroke-linejoin="round"/>
<path d="M6.69873 49.2231L41.1622 80.9334L76.4701 49.2231V88.281H6.69873V49.2231Z" fill="#F8F8F8" stroke="#07122B" stroke-width="2" stroke-linecap="round" stroke-linejoin="round"/>
<path d="M16.5117 54.9092L32.76 47.0005L51.531 60.2823" fill="#F8F8F8"/>
<path d="M16.5117 54.9092L32.76 47.0005L51.531 60.2823" stroke="#07122B" stroke-width="2" stroke-linecap="round" stroke-linejoin="round"/>
<path d="M44.3154 55.2654L53.562 49.1154L66.3896 56.1177" fill="#F8F8F8"/>
<path d="M44.3154 55.2654L53.562 49.1154L66.3896 56.1177" stroke="#07122B" stroke-width="2" stroke-linecap="round" stroke-linejoin="round"/>
<path d="M79.9654 11.6974C79.6563 13.8321 78.5663 15.7726 76.9103 17.1365C75.2542 18.5005 73.1522 19.1891 71.0182 19.0666C73.0385 19.9945 75.1551 21.0195 76.363 22.8969C77.1864 24.3829 77.6583 26.0408 77.742 27.7413C78.1122 25.9342 79.0126 24.2814 80.3262 22.9979C81.6398 21.7143 83.3057 20.8596 85.1072 20.5448C83.8249 20.0262 82.6366 19.2971 81.5903 18.3869C80.7296 17.5349 80.1215 16.4574 79.8344 15.2756C79.5474 14.0938 79.5927 12.8546 79.9654 11.6974Z" fill="#F8F8F8" stroke="#07122B" stroke-width="2" stroke-linecap="round" stroke-linejoin="round"/>
<path d="M88.5172 32.9095C88.2109 35.0404 87.1266 36.9787 85.4772 38.3441C83.8277 39.7095 81.7323 40.4034 79.6021 40.2895C81.6224 41.2282 83.7389 42.2532 84.9469 44.1306C85.781 45.5959 86.2711 47.2347 86.3793 48.9211C86.7495 47.114 87.6499 45.4612 88.9635 44.1777C90.2771 42.8941 91.943 42.0394 93.7445 41.7245C92.4647 41.201 91.2771 40.4723 90.2276 39.5667C89.3579 38.7269 88.7373 37.6593 88.4352 36.4834C88.1331 35.3076 88.1615 34.07 88.5172 32.9095Z" fill="#F8F8F8"/>
<path d="M88.5172 32.9095C88.2109 35.0404 87.1266 36.9787 85.4772 38.3441C83.8277 39.7095 81.7323 40.4034 79.6021 40.2895C81.6224 41.2282 83.7389 42.2532 84.9469 44.1306C85.781 45.5959 86.2711 47.2347 86.3793 48.9211C86.7495 47.114 87.6499 45.4612 88.9635 44.1777C90.2771 42.8941 91.943 42.0394 93.7445 41.7245C92.4647 41.201 91.2771 40.4723 90.2276 39.5667C89.3579 38.7269 88.7373 37.6593 88.4352 36.4834C88.1331 35.3076 88.1615 34.07 88.5172 32.9095" stroke="#07122B" stroke-width="2" stroke-linecap="round" stroke-linejoin="round"/>
</svg>
