<svg width="100" height="100" viewBox="0 0 100 100" fill="none" xmlns="http://www.w3.org/2000/svg">
<path d="M76.8578 17.946L65.8387 5.4231H23.665V47.932H76.8578V17.946Z" fill="#F8F8F8" stroke="#07122B" stroke-width="2" stroke-linecap="round" stroke-linejoin="round"/>
<path d="M65.3892 17.6953L76.8578 17.946L65.8387 5.4231L65.3892 17.6953Z" fill="#F8F8F8" stroke="#07122B" stroke-width="2" stroke-linecap="round" stroke-linejoin="round"/>
<path d="M81.2487 40.976H19.2742C12.3282 40.976 6.69739 46.6013 6.69739 53.5406V61.0502C6.69739 67.9895 12.3282 73.6149 19.2742 73.6149H81.2487C88.1947 73.6149 93.8256 67.9895 93.8256 61.0502V53.5406C93.8256 46.6013 88.1947 40.976 81.2487 40.976Z" fill="#F8F8F8" stroke="#07122B" stroke-width="2" stroke-linecap="round" stroke-linejoin="round"/>
<path d="M51.1499 93.7413V62.7004L76.1467 81.7615L59.9317 79.9129L51.1499 93.7413Z" fill="#F8F8F8" stroke="#07122B" stroke-width="2" stroke-linecap="round" stroke-linejoin="round"/>
<path d="M32.0288 29.8422H66.4661" stroke="#07122B" stroke-width="2" stroke-linecap="round" stroke-linejoin="round"/>
<path d="M32.0288 35.5762H66.4661" stroke="#07122B" stroke-width="2" stroke-linecap="round" stroke-linejoin="round"/>
<path d="M14.81 62.5333C15.6725 63.0512 16.658 63.3288 17.6641 63.3375C19.295 63.3375 20.2464 62.4811 20.2464 61.2486C20.2464 60.0162 19.5878 59.4418 17.915 58.8046C15.9078 58.084 14.6637 57.05 14.6637 55.3162C14.6637 53.3944 16.2528 51.974 18.6469 51.974C19.5916 51.9445 20.529 52.149 21.3755 52.5693L20.9364 53.8644C20.234 53.466 19.4439 53.2472 18.6364 53.2273C16.9532 53.2273 16.3155 54.2718 16.3155 55.0655C16.3155 56.2144 17.0682 56.7889 18.7619 57.4364C20.8528 58.2406 21.8982 59.2538 21.8982 61.0606C21.8982 62.8675 20.466 64.6222 17.591 64.6222C16.4954 64.6355 15.415 64.3657 14.4546 63.8389L14.81 62.5333Z" fill="#07122B"/>
<path d="M28.0973 52.0889V59.4C28.0973 62.1678 29.3309 63.3375 30.9723 63.3375C32.8018 63.3375 33.9728 62.126 33.9728 59.4V52.0889H35.5828V59.2642C35.5828 63.0451 33.5859 64.6013 30.92 64.6013C28.2541 64.6013 26.4873 63.16 26.4873 59.3791V52.0889H28.0973Z" fill="#07122B"/>
<path d="M40.8105 52.2769C41.7722 52.0968 42.749 52.0093 43.7274 52.0158C44.9242 51.9033 46.1219 52.2218 47.1042 52.914C47.443 53.1631 47.7155 53.4914 47.8977 53.8702C48.08 54.2489 48.1665 54.6666 48.1496 55.0865C48.1291 55.6995 47.9161 56.2905 47.5409 56.776C47.1657 57.2614 46.6472 57.6167 46.0587 57.7916C46.7836 57.9316 47.4358 58.3226 47.9005 58.8958C48.3652 59.4689 48.6126 60.1875 48.5992 60.9249C48.6063 61.3859 48.517 61.8432 48.3369 62.2677C48.1569 62.6921 47.8901 63.0743 47.5537 63.3898C46.6965 64.1732 45.306 64.5387 43.2987 64.5387C42.474 64.5451 41.6497 64.4962 40.8315 64.3925L40.8105 52.2769ZM42.3996 57.3112H43.8424C45.5255 57.3112 46.5083 56.4338 46.5083 55.2223C46.5083 53.7705 45.4628 53.2065 43.8005 53.2065C43.3309 53.1961 42.8613 53.2346 42.3996 53.3214V57.3112ZM42.3996 63.2123C42.8397 63.2705 43.2836 63.295 43.7274 63.2854C45.3792 63.2854 46.8637 62.6796 46.8637 60.8936C46.8637 59.1076 45.421 58.5227 43.7274 58.5227H42.3996V63.2123Z" fill="#07122B"/>
<path d="M63.5909 59.0135C63.4969 57.2902 63.3819 55.2326 63.4028 53.6973C62.9846 55.1386 62.4723 56.674 61.845 58.3764L59.6705 64.3402H58.3637L56.3669 58.4809C55.7814 56.7471 55.3214 55.1595 54.945 53.6973C54.945 55.2326 54.8196 57.2902 54.7046 59.1389L54.3805 64.3611H52.8541L53.7114 52.0889H55.7396L57.8305 58.0422C58.3428 59.5566 58.7609 60.904 59.0746 62.22H59.1269C59.4405 60.9771 59.8796 59.6298 60.4337 58.0422L62.6291 52.0889H64.6364L65.41 64.3924H63.8732L63.5909 59.0135Z" fill="#07122B"/>
<path d="M71.9547 52.0889V64.4133H70.3447V52.0889H71.9547Z" fill="#07122B"/>
<path d="M79.5237 53.4571H75.7705V52.0889H84.8973V53.4362H81.1337V64.4133H79.5237V53.4571Z" fill="#07122B"/>
<path d="M51.1499 62.7004L59.9317 79.9024" stroke="#07122B" stroke-width="2" stroke-linecap="round" stroke-linejoin="round"/>
</svg>
