<svg width="120" height="32" viewBox="0 0 140 32" fill="none" xmlns="http://www.w3.org/2000/svg">
<g clip-path="url(#clip0_211_18362)">
<rect x="10.5" y="0.75" width="127.5" height="29.75" rx="14.875" fill="#fae6f9"/>
<path d="M25.9102 8.63647H28.3285L31.5671 16.5413H31.695L34.9336 8.63647H37.3519V19.5456H35.4556V12.0509H35.3544L32.3395 19.5136H30.9226L27.9077 12.0349H27.8065V19.5456H25.9102V8.63647Z" fill="#660FE0"/>
<path d="M43.1876 19.7054C42.3886 19.7054 41.6961 19.5296 41.1102 19.178C40.5242 18.8265 40.0697 18.3346 39.7465 17.7025C39.4269 17.0704 39.2671 16.3318 39.2671 15.4866C39.2671 14.6414 39.4269 13.901 39.7465 13.2654C40.0697 12.6297 40.5242 12.1361 41.1102 11.7846C41.6961 11.433 42.3886 11.2572 43.1876 11.2572C43.9866 11.2572 44.679 11.433 45.265 11.7846C45.8509 12.1361 46.3037 12.6297 46.6233 13.2654C46.9464 13.901 47.108 14.6414 47.108 15.4866C47.108 16.3318 46.9464 17.0704 46.6233 17.7025C46.3037 18.3346 45.8509 18.8265 45.265 19.178C44.679 19.5296 43.9866 19.7054 43.1876 19.7054ZM43.1982 18.1606C43.6315 18.1606 43.9937 18.0417 44.2849 17.8037C44.5761 17.5623 44.7927 17.2391 44.9347 16.8343C45.0803 16.4294 45.1531 15.9784 45.1531 15.4813C45.1531 14.9806 45.0803 14.5278 44.9347 14.123C44.7927 13.7146 44.5761 13.3897 44.2849 13.1482C43.9937 12.9067 43.6315 12.786 43.1982 12.786C42.7543 12.786 42.385 12.9067 42.0903 13.1482C41.7991 13.3897 41.5807 13.7146 41.4351 14.123C41.293 14.5278 41.222 14.9806 41.222 15.4813C41.222 15.9784 41.293 16.4294 41.4351 16.8343C41.5807 17.2391 41.7991 17.5623 42.0903 17.8037C42.385 18.0417 42.7543 18.1606 43.1982 18.1606Z" fill="#660FE0"/>
<path d="M55.4113 13.5264L53.6535 13.7182C53.6037 13.5406 53.5167 13.3737 53.3925 13.2174C53.2717 13.0612 53.1084 12.9351 52.9024 12.8392C52.6964 12.7434 52.4443 12.6954 52.146 12.6954C51.7447 12.6954 51.4074 12.7824 51.1339 12.9564C50.864 13.1304 50.7309 13.3559 50.7344 13.6329C50.7309 13.8708 50.8179 14.0644 50.9954 14.2135C51.1765 14.3627 51.4748 14.4852 51.8903 14.5811L53.2859 14.8794C54.0601 15.0463 54.6354 15.3108 55.0118 15.6731C55.3917 16.0353 55.5835 16.5093 55.5871 17.0953C55.5835 17.6102 55.4326 18.0647 55.1343 18.4589C54.8395 18.8495 54.4294 19.1549 53.9038 19.3751C53.3782 19.5953 52.7746 19.7054 52.0927 19.7054C51.0913 19.7054 50.2852 19.4958 49.6744 19.0768C49.0636 18.6542 48.6996 18.0665 48.5824 17.3137L50.4628 17.1326C50.548 17.5019 50.7291 17.7807 51.0061 17.9689C51.2831 18.1571 51.6435 18.2512 52.0874 18.2512C52.5455 18.2512 52.913 18.1571 53.19 17.9689C53.4706 17.7807 53.6108 17.5481 53.6108 17.2711C53.6108 17.0367 53.5203 16.8432 53.3392 16.6905C53.1616 16.5378 52.8846 16.4206 52.5082 16.3389L51.1126 16.0459C50.3278 15.8826 49.7472 15.6074 49.3708 15.2203C48.9944 14.8297 48.8079 14.336 48.8115 13.7395C48.8079 13.2352 48.9447 12.7984 49.2216 12.4291C49.5022 12.0562 49.891 11.7686 50.3882 11.5662C50.8889 11.3602 51.466 11.2572 52.1194 11.2572C53.0782 11.2572 53.8328 11.4614 54.3832 11.8698C54.9372 12.2782 55.2799 12.8304 55.4113 13.5264Z" fill="#660FE0"/>
<path d="M61.4627 11.3637V12.8552H56.7592V11.3637H61.4627ZM57.9204 9.40352H59.8487V17.0846C59.8487 17.3439 59.8877 17.5427 59.9659 17.6812C60.0475 17.8162 60.1541 17.9085 60.2855 17.9582C60.4169 18.0079 60.5624 18.0328 60.7222 18.0328C60.843 18.0328 60.9531 18.0239 61.0525 18.0061C61.1555 17.9884 61.2336 17.9724 61.2869 17.9582L61.6118 19.4657C61.5088 19.5012 61.3615 19.5402 61.1697 19.5829C60.9815 19.6255 60.7507 19.6503 60.4772 19.6574C59.9943 19.6716 59.5593 19.5988 59.1722 19.439C58.7851 19.2757 58.4779 19.0235 58.2507 18.6826C58.0269 18.3417 57.9169 17.9156 57.9204 17.4042V9.40352Z" fill="#660FE0"/>
<path d="M67.196 22.6137V11.3637H69.0923V12.7167H69.2042C69.3036 12.5179 69.4439 12.3066 69.625 12.0829C69.8061 11.8556 70.0511 11.662 70.3601 11.5022C70.669 11.3389 71.0632 11.2572 71.5426 11.2572C72.1747 11.2572 72.7447 11.4188 73.2525 11.7419C73.7639 12.0615 74.1687 12.5356 74.467 13.1642C74.7688 13.7892 74.9197 14.5562 74.9197 15.4653C74.9197 16.3637 74.7724 17.1272 74.4776 17.7558C74.1829 18.3843 73.7816 18.8637 73.2738 19.194C72.766 19.5243 72.1907 19.6894 71.5479 19.6894C71.0792 19.6894 70.6903 19.6113 70.3814 19.455C70.0724 19.2988 69.8239 19.1106 69.6357 18.8904C69.451 18.6667 69.3072 18.4554 69.2042 18.2565H69.1243V22.6137H67.196ZM69.087 15.4547C69.087 15.9838 69.1616 16.4472 69.3107 16.8449C69.4634 17.2427 69.6818 17.5534 69.9659 17.7771C70.2536 17.9973 70.6016 18.1074 71.0099 18.1074C71.4361 18.1074 71.793 17.9937 72.0806 17.7664C72.3683 17.5356 72.5849 17.2213 72.7305 16.8236C72.8796 16.4223 72.9542 15.966 72.9542 15.4547C72.9542 14.9468 72.8814 14.4958 72.7358 14.1017C72.5902 13.7075 72.3736 13.3985 72.0859 13.1748C71.7983 12.9511 71.4396 12.8392 71.0099 12.8392C70.598 12.8392 70.2482 12.9476 69.9606 13.1642C69.6729 13.3808 69.4545 13.6844 69.3054 14.075C69.1598 14.4657 69.087 14.9255 69.087 15.4547Z" fill="#660FE0"/>
<path d="M80.3399 19.7054C79.5409 19.7054 78.8484 19.5296 78.2625 19.178C77.6766 18.8265 77.222 18.3346 76.8989 17.7025C76.5793 17.0704 76.4195 16.3318 76.4195 15.4866C76.4195 14.6414 76.5793 13.901 76.8989 13.2654C77.222 12.6297 77.6766 12.1361 78.2625 11.7846C78.8484 11.433 79.5409 11.2572 80.3399 11.2572C81.1389 11.2572 81.8314 11.433 82.4173 11.7846C83.0033 12.1361 83.456 12.6297 83.7756 13.2654C84.0988 13.901 84.2604 14.6414 84.2604 15.4866C84.2604 16.3318 84.0988 17.0704 83.7756 17.7025C83.456 18.3346 83.0033 18.8265 82.4173 19.178C81.8314 19.5296 81.1389 19.7054 80.3399 19.7054ZM80.3506 18.1606C80.7838 18.1606 81.146 18.0417 81.4372 17.8037C81.7284 17.5623 81.945 17.2391 82.0871 16.8343C82.2327 16.4294 82.3055 15.9784 82.3055 15.4813C82.3055 14.9806 82.2327 14.5278 82.0871 14.123C81.945 13.7146 81.7284 13.3897 81.4372 13.1482C81.146 12.9067 80.7838 12.786 80.3506 12.786C79.9067 12.786 79.5374 12.9067 79.2426 13.1482C78.9514 13.3897 78.733 13.7146 78.5874 14.123C78.4454 14.5278 78.3744 14.9806 78.3744 15.4813C78.3744 15.9784 78.4454 16.4294 78.5874 16.8343C78.733 17.2391 78.9514 17.5623 79.2426 17.8037C79.5374 18.0417 79.9067 18.1606 80.3506 18.1606Z" fill="#660FE0"/>
<path d="M86.097 22.6137V11.3637H87.9933V12.7167H88.1052C88.2046 12.5179 88.3449 12.3066 88.526 12.0829C88.7071 11.8556 88.9521 11.662 89.2611 11.5022C89.57 11.3389 89.9642 11.2572 90.4436 11.2572C91.0757 11.2572 91.6457 11.4188 92.1535 11.7419C92.6648 12.0615 93.0697 12.5356 93.368 13.1642C93.6698 13.7892 93.8207 14.5562 93.8207 15.4653C93.8207 16.3637 93.6733 17.1272 93.3786 17.7558C93.0839 18.3843 92.6826 18.8637 92.1748 19.194C91.667 19.5243 91.0917 19.6894 90.4489 19.6894C89.9802 19.6894 89.5913 19.6113 89.2824 19.455C88.9734 19.2988 88.7248 19.1106 88.5366 18.8904C88.352 18.6667 88.2082 18.4554 88.1052 18.2565H88.0253V22.6137H86.097ZM87.988 15.4547C87.988 15.9838 88.0626 16.4472 88.2117 16.8449C88.3644 17.2427 88.5828 17.5534 88.8669 17.7771C89.1545 17.9973 89.5025 18.1074 89.9109 18.1074C90.3371 18.1074 90.6939 17.9937 90.9816 17.7664C91.2692 17.5356 91.4859 17.2213 91.6314 16.8236C91.7806 16.4223 91.8552 15.966 91.8552 15.4547C91.8552 14.9468 91.7824 14.4958 91.6368 14.1017C91.4912 13.7075 91.2746 13.3985 90.9869 13.1748C90.6993 12.9511 90.3406 12.8392 89.9109 12.8392C89.499 12.8392 89.1492 12.9476 88.8616 13.1642C88.5739 13.3808 88.3555 13.6844 88.2064 14.075C88.0608 14.4657 87.988 14.9255 87.988 15.4547Z" fill="#660FE0"/>
<path d="M100.887 16.1045V11.3637H102.815V19.5456H100.945V18.0914H100.86C100.676 18.5495 100.372 18.9241 99.9493 19.2153C99.5303 19.5065 99.0136 19.6521 98.3993 19.6521C97.863 19.6521 97.389 19.5331 96.977 19.2952C96.5687 19.0537 96.2491 18.7039 96.0182 18.2458C95.7874 17.7842 95.672 17.2267 95.672 16.5733V11.3637H97.6003V16.275C97.6003 16.7934 97.7423 17.2054 98.0264 17.5108C98.3105 17.8162 98.6834 17.9689 99.145 17.9689C99.4291 17.9689 99.7043 17.8996 99.9706 17.7611C100.237 17.6226 100.455 17.4167 100.626 17.1432C100.8 16.8662 100.887 16.52 100.887 16.1045Z" fill="#660FE0"/>
<path d="M106.926 8.63647V19.5456H104.998V8.63647H106.926Z" fill="#660FE0"/>
<path d="M111.464 19.7107C110.945 19.7107 110.478 19.6184 110.063 19.4337C109.651 19.2455 109.324 18.9685 109.082 18.6027C108.845 18.237 108.726 17.786 108.726 17.2498C108.726 16.7881 108.811 16.4064 108.981 16.1045C109.152 15.8027 109.384 15.5612 109.679 15.3801C109.974 15.199 110.306 15.0623 110.675 14.9699C111.048 14.874 111.433 14.8048 111.831 14.7622C112.31 14.7125 112.699 14.6681 112.998 14.629C113.296 14.5864 113.513 14.5225 113.647 14.4373C113.786 14.3485 113.855 14.2118 113.855 14.0271V13.9951C113.855 13.5939 113.736 13.2831 113.498 13.063C113.26 12.8428 112.918 12.7327 112.47 12.7327C111.998 12.7327 111.623 12.8357 111.346 13.0417C111.073 13.2476 110.888 13.4909 110.792 13.7714L108.992 13.5157C109.134 13.0186 109.368 12.6031 109.695 12.2693C110.022 11.9319 110.421 11.6798 110.894 11.5129C111.366 11.3424 111.888 11.2572 112.46 11.2572C112.854 11.2572 113.246 11.3034 113.637 11.3957C114.027 11.488 114.384 11.6407 114.707 11.8538C115.031 12.0633 115.29 12.3492 115.485 12.7114C115.684 13.0736 115.783 13.5264 115.783 14.0697V19.5456H113.93V18.4216H113.866C113.749 18.6489 113.584 18.862 113.37 19.0608C113.161 19.2561 112.896 19.4142 112.577 19.5349C112.261 19.6521 111.89 19.7107 111.464 19.7107ZM111.964 18.2938C112.351 18.2938 112.687 18.2174 112.971 18.0647C113.255 17.9085 113.473 17.7025 113.626 17.4468C113.782 17.1912 113.861 16.9124 113.861 16.6106V15.6464C113.8 15.6961 113.697 15.7423 113.552 15.7849C113.41 15.8275 113.25 15.8648 113.072 15.8968C112.895 15.9287 112.719 15.9571 112.545 15.982C112.371 16.0069 112.22 16.0282 112.092 16.0459C111.804 16.085 111.547 16.1489 111.32 16.2377C111.092 16.3265 110.913 16.4507 110.782 16.6106C110.65 16.7668 110.585 16.9692 110.585 17.2178C110.585 17.5729 110.714 17.841 110.973 18.0221C111.233 18.2032 111.563 18.2938 111.964 18.2938Z" fill="#660FE0"/>
<path d="M117.922 19.5456V11.3637H119.792V12.7274H119.877C120.026 12.2551 120.282 11.8911 120.644 11.6354C121.01 11.3762 121.427 11.2466 121.896 11.2466C122.003 11.2466 122.122 11.2519 122.253 11.2625C122.388 11.2696 122.5 11.2821 122.589 11.2998V13.0736C122.507 13.0452 122.377 13.0204 122.2 12.999C122.026 12.9742 121.857 12.9618 121.694 12.9618C121.342 12.9618 121.026 13.0381 120.746 13.1908C120.469 13.34 120.25 13.5477 120.09 13.814C119.931 14.0804 119.851 14.3875 119.851 14.7356V19.5456H117.922Z" fill="#660FE0"/>
<path d="M2 29.4375C9.65 29.4375 10.8542 19.5208 10.5 14.5625C13.1562 15.2708 18.4688 18.0688 18.4688 23.5938C18.4688 29.1187 7.48958 29.7917 2 29.4375Z" fill="#fae6f9"/>
</g>
<defs>
<clipPath id="clip0_211_18362">
<rect width="140" height="32" fill="white"/>
</clipPath>
</defs>
</svg>
